<svg xmlns="http://www.w3.org/2000/svg" viewBox="1059 298 513 343"><defs><style>.a,.c,.g,.h{fill:#fff;}.a{stroke:#404040;stroke-width:17px;}.b{fill:#404040;}.d{fill:#f9f9f9;stroke:#707070;}.e{fill:#38a5f6;}.f{fill:#535353;font-size:18px;font-family:SegoeUI, Segoe UI;}.h{font-size:9px;font-family:SegoeUI-Semibold, Segoe UI;font-weight:600;}.i{fill:#e1e1e1;}.j{fill:#f3f3f3;}.k{fill:rgba(66,203,255,0.68);}.l{fill:rgba(66,255,147,0.68);}.m,.o{stroke:none;}.n{fill:none;}.o{fill:#dadada;}</style></defs><g class="a" transform="translate(1059 298)"><rect class="m" width="513" height="294" rx="16"/><rect class="n" x="8.5" y="8.5" width="496" height="277" rx="7.5"/></g><rect class="b" width="138" height="39" transform="translate(1247 592)"/><rect class="c" width="241" height="261" transform="translate(1075 314)"/><g class="d" transform="translate(1316 314)"><rect class="m" width="241" height="261"/><rect class="n" x="0.5" y="0.5" width="240" height="260"/></g><rect class="e" width="26" height="261" transform="translate(1075 314)"/><text class="f" transform="translate(1396 425)"><tspan x="0" y="0">16 - 4 = ? </tspan></text><g class="g" transform="translate(1396 436)"><path class="m" d="M 80.5 17.5 L 0.5 17.5 L 0.5 0.5 L 80.5 0.5 L 80.5 17.5 Z"/><path class="o" d="M 80 17 L 80 1 L 1 1 L 1 17 L 80 17 M 81 18 L 0 18 L 0 0 L 81 0 L 81 18 Z"/></g><rect class="e" width="81" height="20" rx="10" transform="translate(1396 465)"/><text class="h" transform="translate(1407 479)"><tspan x="0" y="0">Check Answer!</tspan></text><rect class="i" width="175" height="14" rx="7" transform="translate(1108 338)"/><rect class="i" width="130" height="10" rx="5" transform="translate(1108 367)"/><rect class="i" width="146" height="10" rx="5" transform="translate(1108 386)"/><rect class="i" width="116" height="10" rx="5" transform="translate(1108 405)"/><rect class="i" width="170" height="10" rx="5" transform="translate(1108 424)"/><rect class="i" width="139" height="10" rx="5" transform="translate(1108 443)"/><rect class="j" width="136" height="40" rx="9" transform="translate(1111 478)"/><rect class="k" width="42" height="13" rx="6.5" transform="translate(1160 527)"/><rect class="l" width="42" height="13" rx="6.5" transform="translate(1114 527)"/><g transform="translate(1297.03 604.433)"><path class="c" d="M4.16,5.907,8.028,1.66A.988.988,0,0,0,7.317,0H6.267a.977.977,0,0,0-.7.305L.235,6.031A.992.992,0,0,0,.2,7.338l5.648,6.937a.958.958,0,0,0,.749.353H7.888a.988.988,0,0,0,.759-1.6L4.113,7.185A.986.986,0,0,1,4.16,5.907Z" transform="translate(0)"/><path class="c" d="M114.2.992V13.645a.983.983,0,0,0,.974.992h1.386a.983.983,0,0,0,.974-.992V.992A.983.983,0,0,0,116.56,0h-1.386A.983.983,0,0,0,114.2.992Z" transform="translate(-103.53)"/><path class="c" d="M192.06,3.473A6.8,6.8,0,0,0,189.269.906,9.109,9.109,0,0,0,185.129,0h-5.555a.983.983,0,0,0-.974.992V13.645a.983.983,0,0,0,.974.992h5.555a9.109,9.109,0,0,0,4.14-.906,6.773,6.773,0,0,0,2.791-2.557,7.287,7.287,0,0,0,.993-3.845A7.3,7.3,0,0,0,192.06,3.473Zm-3.653,7.157a4.793,4.793,0,0,1-3.438,1.221H182.9a.983.983,0,0,1-.974-.992V3.769a.983.983,0,0,1,.974-.992h2.07A4.793,4.793,0,0,1,188.407,4a4.361,4.361,0,0,1,1.283,3.311A4.368,4.368,0,0,1,188.407,10.63Z" transform="translate(-161.898)"/><path class="c" d="M348.781,82.183l2.061-2.758a.453.453,0,0,0-.356-.725h-1.04a.441.441,0,0,0-.356.181l-1.386,1.9-1.349-1.889A.441.441,0,0,0,346,78.71h-1.171a.455.455,0,0,0-.356.725l2.07,2.815L344.4,85.112a.451.451,0,0,0,.356.725h1.1a.441.441,0,0,0,.356-.181l1.452-2,1.405,1.994a.45.45,0,0,0,.356.191h1.19a.456.456,0,0,0,.356-.725Z" transform="translate(-312.081 -71.19)"/></g><rect class="b" width="302" height="13" transform="translate(1165 628)"/></svg>